{
  "accessors": [
    {
      "bufferView": 2,
      "componentType": 5126,
      "count": 35868,
      "max": [
        39.14939880371094,
        165.6092529296875,
        58.061500549316406
      ],
      "min": [
        -39.14939880371094,
        -165.6092529296875,
        -58.061500549316406
      ],
      "type": "VEC3"
    },
    {
      "bufferView": 2,
      "byteOffset": 430416,
      "componentType": 5126,
      "count": 35868,
      "max": [
        0.9999836683273315,
        0.9999990463256836,
        0.9999982118606567
      ],
      "min": [
        -0.9999837875366211,
        -0.9999954700469971,
        -0.9999861717224121
      ],
      "type": "VEC3"
    },
    {
      "bufferView": 3,
      "componentType": 5126,
      "count": 35868,
      "max": [
        0.9999992847442627,
        0.9999580383300781,
        0.9999784231185913,
        1.0
      ],
      "min": [
        -1.0,
        -0.9999980926513672,
        -0.9999834895133972,
        -1.0
      ],
      "type": "VEC4"
    },
    {
      "bufferView": 1,
      "componentType": 5126,
      "count": 35868,
      "max": [
        0.9962000250816345,
        1.992900013923645
      ],
      "min": [
        0.003800000064074993,
        0.0038999998942017555
      ],
      "type": "VEC2"
    },
    {
      "bufferView": 0,
      "componentType": 5125,
      "count": 172170,
      "type": "SCALAR"
    },
    {
      "bufferView": 2,
      "byteOffset": 860832,
      "componentType": 5126,
      "count": 1026,
      "max": [
        8.417499542236328,
        -137.93814086914063,
        45.581703186035156
      ],
      "min": [
        -8.417699813842773,
        -142.2978515625,
        41.21649932861328
      ],
      "type": "VEC3"
    },
    {
      "bufferView": 2,
      "byteOffset": 873144,
      "componentType": 5126,
      "count": 1026,
      "max": [
        0.9984160661697388,
        0.9988966584205627,
        0.9987331032752991
      ],
      "min": [
        -0.9984160661697388,
        -0.9992052316665649,
        -0.9985959529876709
      ],
      "type": "VEC3"
    },
    {
      "bufferView": 3,
      "byteOffset": 573888,
      "componentType": 5126,
      "count": 1026,
      "max": [
        0.999973475933075,
        0.7181056141853333,
        0.9984622001647949,
        1.0
      ],
      "min": [
        -0.9999566078186035,
        -0.9994131326675415,
        -0.9999048709869385,
        -1.0
      ],
      "type": "VEC4"
    },
    {
      "bufferView": 1,
      "byteOffset": 286944,
      "componentType": 5126,
      "count": 1026,
      "max": [
        0.9951000213623047,
        0.9929999709129333
      ],
      "min": [
        0.006899999920278788,
        0.0038999998942017555
      ],
      "type": "VEC2"
    },
    {
      "bufferView": 0,
      "byteOffset": 688680,
      "componentType": 5125,
      "count": 5760,
      "type": "SCALAR"
    }
  ],
  "asset": {
    "extras": {
      "author": "Marcel Schanz (https://sketchfab.com/mschanz)",
      "license": "CC-BY-4.0 (http://creativecommons.org/licenses/by/4.0/)",
      "source": "https://sketchfab.com/3d-models/tyrant-king-tyrannosaurus-6465a297fa784598adc49f6e0042d449",
      "title": "Tyrant King - Tyrannosaurus"
    },
    "generator": "Sketchfab-16.72.0",
    "version": "2.0"
  },
  "bufferViews": [
    {
      "buffer": 0,
      "byteLength": 711720,
      "name": "floatBufferViews",
      "target": 34963
    },
    {
      "buffer": 0,
      "byteLength": 295152,
      "byteOffset": 711720,
      "byteStride": 8,
      "name": "floatBufferViews",
      "target": 34962
    },
    {
      "buffer": 0,
      "byteLength": 885456,
      "byteOffset": 1006872,
      "byteStride": 12,
      "name": "floatBufferViews",
      "target": 34962
    },
    {
      "buffer": 0,
      "byteLength": 590304,
      "byteOffset": 1892328,
      "byteStride": 16,
      "name": "floatBufferViews",
      "target": 34962
    }
  ],
  "buffers": [
    {
      "byteLength": 2482632,
      "uri": "scene.bin"
    }
  ],
  "extensionsRequired": [
    "KHR_materials_pbrSpecularGlossiness"
  ],
  "extensionsUsed": [
    "KHR_materials_pbrSpecularGlossiness"
  ],
  "images": [
    {
      "uri": "textures/Body_diffuse.jpeg"
    },
    {
      "uri": "textures/Body_specularGlossiness.png"
    },
    {
      "uri": "textures/Body_normal.png"
    },
    {
      "uri": "textures/Body_occlusion.png"
    },
    {
      "uri": "textures/material_diffuse.jpeg"
    },
    {
      "uri": "textures/material_normal.png"
    }
  ],
  "materials": [
    {
      "doubleSided": true,
      "extensions": {
        "KHR_materials_pbrSpecularGlossiness": {
          "diffuseFactor": [
            1.0,
            1.0,
            1.0,
            1.0
          ],
          "diffuseTexture": {
            "index": 0
          },
          "glossinessFactor": 0.5021502735853215,
          "specularFactor": [
            0.1306535194595037,
            0.1306535194595037,
            0.1306535194595037
          ],
          "specularGlossinessTexture": {
            "index": 1
          }
        }
      },
      "name": "Body",
      "normalTexture": {
        "index": 2
      },
      "occlusionTexture": {
        "index": 3
      }
    },
    {
      "doubleSided": true,
      "extensions": {
        "KHR_materials_pbrSpecularGlossiness": {
          "diffuseFactor": [
            1.0,
            1.0,
            1.0,
            1.0
          ],
          "diffuseTexture": {
            "index": 4
          },
          "glossinessFactor": 0.10702864035024488,
          "specularFactor": [
            0.05,
            0.05,
            0.05
          ]
        }
      },
      "name": "material",
      "normalTexture": {
        "index": 5
      }
    }
  ],
  "meshes": [
    {
      "name": "Tyrant_King_2_Body_0",
      "primitives": [
        {
          "attributes": {
            "NORMAL": 1,
            "POSITION": 0,
            "TANGENT": 2,
            "TEXCOORD_0": 3
          },
          "indices": 4,
          "material": 0,
          "mode": 4
        }
      ]
    },
    {
      "name": "Tyrant_King_2_Eye_0",
      "primitives": [
        {
          "attributes": {
            "NORMAL": 6,
            "POSITION": 5,
            "TANGENT": 7,
            "TEXCOORD_0": 8
          },
          "indices": 9,
          "material": 1,
          "mode": 4
        }
      ]
    }
  ],
  "nodes": [
    {
      "children": [
        1
      ],
      "matrix": [
        1.0,
        0.0,
        0.0,
        0.0,
        0.0,
        2.220446049250313e-16,
        -1.0,
        0.0,
        0.0,
        1.0,
        2.220446049250313e-16,
        0.0,
        0.0,
        0.0,
        0.0,
        1.0
      ],
      "name": "Sketchfab_model"
    },
    {
      "children": [
        2
      ],
      "matrix": [
        0.009999999776482582,
        0.0,
        0.0,
        0.0,
        0.0,
        0.0,
        0.009999999776482582,
        0.0,
        0.0,
        -0.009999999776482582,
        0.0,
        0.0,
        0.0,
        0.0,
        0.0,
        1.0
      ],
      "name": "ca03165996aa4d4db394da9a50b36300.fbx"
    },
    {
      "children": [
        3
      ],
      "name": "RootNode"
    },
    {
      "children": [
        4
      ],
      "matrix": [
        1.0,
        0.0,
        0.0,
        0.0,
        0.0,
        2.220446049250313e-16,
        -1.0,
        0.0,
        0.0,
        1.0,
        2.220446049250313e-16,
        0.0,
        0.0,
        0.0,
        0.0,
        1.0
      ],
      "name": "Tyrant_King_2"
    },
    {
      "children": [
        5,
        6
      ],
      "matrix": [
        1.0,
        0.0,
        -0.0,
        0.0,
        0.0,
        1.0,
        0.0,
        0.0,
        0.0,
        0.0,
        1.0,
        0.0,
        0.0,
        13.512603759765625,
        58.22949981689453,
        1.0
      ],
      "name": "Object_4"
    },
    {
      "mesh": 0,
      "name": "Tyrant_King_2_Body_0"
    },
    {
      "mesh": 1,
      "name": "Tyrant_King_2_Eye_0"
    }
  ],
  "samplers": [
    {
      "magFilter": 9729,
      "minFilter": 9987,
      "wrapS": 10497,
      "wrapT": 10497
    }
  ],
  "scene": 0,
  "scenes": [
    {
      "name": "Sketchfab_Scene",
      "nodes": [
        0
      ]
    }
  ],
  "textures": [
    {
      "sampler": 0,
      "source": 0
    },
    {
      "sampler": 0,
      "source": 1
    },
    {
      "sampler": 0,
      "source": 2
    },
    {
      "sampler": 0,
      "source": 3
    },
    {
      "sampler": 0,
      "source": 4
    },
    {
      "sampler": 0,
      "source": 5
    }
  ]
}
