{
  "accessors": [
    {
      "bufferView": 3,
      "componentType": 5126,
      "count": 12370,
      "max": [
        2.58349609375,
        3.33251953125,
        6.43603515625
      ],
      "min": [
        -2.5830078125,
        -0.8305663466453552,
        -14.6708984375
      ],
      "type": "VEC3"
    },
    {
      "bufferView": 3,
      "byteOffset": 148440,
      "componentType": 5126,
      "count": 12370,
      "max": [
        0.9999271631240845,
        0.9999639987945557,
        0.9994286298751831
      ],
      "min": [
        -0.999921441078186,
        -0.9999781847000122,
        -0.9999964237213135
      ],
      "type": "VEC3"
    },
    {
      "bufferView": 4,
      "componentType": 5126,
      "count": 12370,
      "max": [
        1.0,
        0.999860942363739,
        0.9998750686645508,
        1.0
      ],
      "min": [
        -0.9999999403953552,
        -0.9997707605361938,
        -0.9991494417190552,
        -1.0
      ],
      "type": "VEC4"
    },
    {
      "bufferView": 2,
      "componentType": 5126,
      "count": 12370,
      "max": [
        0.996337890625,
        0.996826171875
      ],
      "min": [
        0.003662109375,
        0.000732421875
      ],
      "type": "VEC2"
    },
    {
      "bufferView": 1,
      "componentType": 5125,
      "count": 65082,
      "type": "SCALAR"
    },
    {
      "bufferView": 5,
      "componentType": 5126,
      "count": 56,
      "max": [
        1.3899959325790405,
        1.3899959325790405,
        1.3148962259292603,
        0.0,
        0.7903937101364136,
        1.0,
        1.3900220394134521,
        0.0,
        1.3899967670440674,
        1.389992594718933,
        1.3899970054626465,
        0.0,
        6.401488780975342,
        3.690309762954712,
        0.4444875717163086,
        1.0
      ],
      "min": [
        -1.3899959325790405,
        -1.3899959325790405,
        -1.3148928880691528,
        0.0,
        -0.7903931736946106,
        -1.3900221586227417,
        0.0,
        0.0,
        -1.3899967670440674,
        -1.389992594718933,
        -0.2703930139541626,
        0.0,
        -6.401487827301025,
        -18.200342178344727,
        -4.8539838790893555,
        1.0
      ],
      "type": "MAT4"
    },
    {
      "bufferView": 0,
      "componentType": 5123,
      "count": 12370,
      "type": "VEC4"
    },
    {
      "bufferView": 4,
      "byteOffset": 197920,
      "componentType": 5126,
      "count": 12370,
      "max": [
        1.0,
        0.49803921580314636,
        0.3176470696926117,
        0.21960784494876862
      ],
      "min": [
        0.2980392277240753,
        0.0,
        0.0,
        0.0
      ],
      "type": "VEC4"
    }
  ],
  "asset": {
    "extras": {
      "author": "AllThingsSaurus (https://sketchfab.com/AllThingsSaurus)",
      "license": "CC-BY-4.0 (http://creativecommons.org/licenses/by/4.0/)",
      "source": "https://sketchfab.com/3d-models/jurassic-world-mosasaurus-c5bc4535b14e40ab8d989fa544f91c5c",
      "title": "Jurassic World Mosasaurus"
    },
    "generator": "Sketchfab-16.72.0",
    "version": "2.0"
  },
  "bufferViews": [
    {
      "buffer": 0,
      "byteLength": 98960,
      "byteStride": 8,
      "name": "shortBufferViews",
      "target": 34962
    },
    {
      "buffer": 0,
      "byteLength": 260328,
      "byteOffset": 98960,
      "name": "floatBufferViews",
      "target": 34963
    },
    {
      "buffer": 0,
      "byteLength": 98960,
      "byteOffset": 359288,
      "byteStride": 8,
      "name": "floatBufferViews",
      "target": 34962
    },
    {
      "buffer": 0,
      "byteLength": 296880,
      "byteOffset": 458248,
      "byteStride": 12,
      "name": "floatBufferViews",
      "target": 34962
    },
    {
      "buffer": 0,
      "byteLength": 395840,
      "byteOffset": 755128,
      "byteStride": 16,
      "name": "floatBufferViews",
      "target": 34962
    },
    {
      "buffer": 0,
      "byteLength": 3584,
      "byteOffset": 1150968,
      "name": "floatBufferViews"
    }
  ],
  "buffers": [
    {
      "byteLength": 1154552,
      "uri": "scene.bin"
    }
  ],
  "extensionsUsed": [
    "KHR_materials_specular"
  ],
  "images": [
    {
      "uri": "textures/Mosasaurus_baseColor.png"
    },
    {
      "uri": "textures/Mosasaurus_metallicRoughness.png"
    },
    {
      "uri": "textures/Mosasaurus_normal.png"
    }
  ],
  "materials": [
    {
      "doubleSided": true,
      "extensions": {
        "KHR_materials_specular": {
          "specularColorFactor": [
            1.0,
            1.0,
            1.0
          ],
          "specularFactor": 0.0
        }
      },
      "name": "Mosasaurus",
      "normalTexture": {
        "index": 2
      },
      "occlusionTexture": {
        "index": 1
      },
      "pbrMetallicRoughness": {
        "baseColorTexture": {
          "index": 0
        },
        "metallicFactor": 0.0,
        "metallicRoughnessTexture": {
          "index": 1
        },
        "roughnessFactor": 0.8211145618000169
      }
    }
  ],
  "meshes": [
    {
      "name": "Mosasaurus_Mosasaurus_0",
      "primitives": [
        {
          "attributes": {
            "JOINTS_0": 6,
            "NORMAL": 1,
            "POSITION": 0,
            "TANGENT": 2,
            "TEXCOORD_0": 3,
            "TEXCOORD_1": 3,
            "TEXCOORD_2": 3,
            "WEIGHTS_0": 7
          },
          "indices": 4,
          "material": 0,
          "mode": 4
        }
      ]
    }
  ],
  "nodes": [
    {
      "children": [
        1
      ],
      "matrix": [
        1.0,
        0.0,
        0.0,
        0.0,
        0.0,
        2.220446049250313e-16,
        -1.0,
        0.0,
        0.0,
        1.0,
        2.220446049250313e-16,
        0.0,
        0.0,
        0.0,
        0.0,
        1.0
      ],
      "name": "Sketchfab_model"
    },
    {
      "children": [
        2
      ],
      "matrix": [
        0.009999999776482582,
        0.0,
        0.0,
        0.0,
        0.0,
        0.0,
        0.009999999776482582,
        0.0,
        0.0,
        -0.009999999776482582,
        0.0,
        0.0,
        0.0,
        0.0,
        0.0,
        1.0
      ],
      "name": "Mosasaurus.fbx"
    },
    {
      "children": [
        3
      ],
      "name": "RootNode"
    },
    {
      "children": [
        4
      ],
      "matrix": [
        100.0,
        0.0,
        0.0,
        0.0,
        0.0,
        -1.629206793918314e-05,
        -99.99999999999868,
        0.0,
        0.0,
        99.99999999999868,
        -1.629206793918314e-05,
        0.0,
        0.0,
        0.0,
        0.0,
        1.0
      ],
      "name": "Mosasaurus_Armature"
    },
    {
      "children": [
        5,
        62,
        61
      ],
      "name": "Object_4"
    },
    {
      "children": [
        6
      ],
      "name": "_rootJoint"
    },
    {
      "children": [
        7,
        17,
        21,
        25
      ],
      "name": "bip_pelvis_01",
      "rotation": [
        3.288089646957815e-05,
        0.04614289104938507,
        0.9989348649978638,
        1.5401509472212638e-06
      ],
      "scale": [
        1.0,
        0.9999997019767761,
        0.9999808669090271
      ],
      "translation": [
        -4.469018518210017e-19,
        3.878413200378418,
        1.8613260984420776
      ]
    },
    {
      "children": [
        8
      ],
      "name": "bip_tail_02",
      "rotation": [
        3.252210080972873e-05,
        0.1322893500328064,
        0.9912112355232239,
        -4.416641786519904e-06
      ],
      "scale": [
        1.0,
        1.0000001192092896,
        1.000001311302185
      ],
      "translation": [
        7.546232723143476e-07,
        -0.33482056856155396,
        0.010637819766998291
      ]
    },
    {
      "children": [
        9
      ],
      "name": "bip_tail_1_03",
      "rotation": [
        -0.000652969058137387,
        -6.381023354151694e-08,
        2.9893272301961815e-09,
        0.9999998807907104
      ],
      "translation": [
        1.4210854715202004e-14,
        1.767263412475586,
        1.1920925402364446e-07
      ]
    },
    {
      "children": [
        10
      ],
      "name": "bip_tail_2_04",
      "rotation": [
        -0.0013901604106649756,
        2.7455399065345887e-10,
        3.156204186893774e-09,
        0.9999990463256836
      ],
      "scale": [
        1.0,
        0.9999998807907104,
        1.0
      ],
      "translation": [
        4.263256414560601e-14,
        1.4440405368804932,
        -1.84297022087776e-14
      ]
    },
    {
      "children": [
        11
      ],
      "name": "bip_tail_3_00",
      "rotation": [
        -0.010241576470434666,
        1.1776508934691066e-10,
        6.402483543332949e-10,
        0.9999475479125977
      ],
      "scale": [
        1.0,
        0.9999999403953552,
        0.9999998807907104
      ],
      "translation": [
        5.684341886080802e-14,
        1.5307214260101318,
        -2.6645352591003757e-14
      ]
    },
    {
      "children": [
        12
      ],
      "name": "bip_tail_4_05",
      "rotation": [
        -0.016354059800505638,
        -8.953415786550067e-11,
        -2.605659688015294e-09,
        0.9998663663864136
      ],
      "scale": [
        1.0,
        1.0,
        0.9999999403953552
      ],
      "translation": [
        7.105427357601002e-14,
        1.3529108762741089,
        1.1920925402364446e-07
      ]
    },
    {
      "children": [
        13
      ],
      "name": "bip_tail_5_06",
      "rotation": [
        -0.018693160265684128,
        -1.0025599794794005e-10,
        -2.8591724543503005e-09,
        0.9998252391815186
      ],
      "scale": [
        1.0,
        0.9999998807907104,
        1.0
      ],
      "translation": [
        0.0,
        1.4133561849594116,
        -3.8413716652030416e-14
      ]
    },
    {
      "children": [
        14
      ],
      "name": "bip_tail_6_07",
      "rotation": [
        -0.015238829888403416,
        1.2406961742705835e-11,
        2.6069622155455718e-11,
        0.9998838901519775
      ],
      "scale": [
        1.0,
        0.9999999403953552,
        1.0
      ],
      "translation": [
        -1.2434497875801753e-13,
        1.4857449531555176,
        -1.192093321833454e-07
      ]
    },
    {
      "children": [
        15
      ],
      "name": "bip_tail_7_08",
      "rotation": [
        -0.013478249311447144,
        -2.6343073555867846e-11,
        -1.5471032233094206e-09,
        0.9999091625213623
      ],
      "scale": [
        1.0,
        1.0,
        0.9999999403953552
      ],
      "translation": [
        -3.197442310920451e-14,
        1.55439293384552,
        1.7881389169360773e-07
      ]
    },
    {
      "children": [
        16
      ],
      "name": "bip_tail_8_09",
      "rotation": [
        -0.009268623776733875,
        5.613176590202329e-12,
        1.0295463370724178e-09,
        0.9999571442604065
      ],
      "scale": [
        1.0,
        1.0,
        0.9999999403953552
      ],
      "translation": [
        4.657385588302532e-14,
        1.7096201181411743,
        -2.9802379231114173e-08
      ]
    },
    {
      "name": "bip_tail_9_010",
      "rotation": [
        -0.004906673450022936,
        6.644906521725835e-13,
        -2.323982783991596e-09,
        0.9999879598617554
      ],
      "scale": [
        1.0,
        0.9999999403953552,
        1.0
      ],
      "translation": [
        -9.237055564881302e-14,
        1.8545503616333008,
        1.0430806440808738e-07
      ]
    },
    {
      "children": [
        18
      ],
      "name": "bip_hip_l_011",
      "rotation": [
        -0.32205915451049805,
        -0.10679996758699417,
        0.7710762023925781,
        0.538807213306427
      ],
      "scale": [
        0.9999998807907104,
        1.0,
        0.9999998807907104
      ],
      "translation": [
        -0.9424188137054443,
        0.25858035683631897,
        -0.9976547956466675
      ]
    },
    {
      "children": [
        19
      ],
      "name": "bip_knee_l_012",
      "rotation": [
        0.07775606960058212,
        -0.03663993254303932,
        0.1292039304971695,
        0.9878856539726257
      ],
      "scale": [
        1.0000001192092896,
        1.0000001192092896,
        1.0000001192092896
      ],
      "translation": [
        6.258487701416016e-07,
        0.7474328875541687,
        2.086162567138672e-07
      ]
    },
    {
      "children": [
        20
      ],
      "name": "bip_foot_l_013",
      "rotation": [
        -0.04789155721664429,
        0.02166266180574894,
        0.05776471272110939,
        0.9969455003738403
      ],
      "scale": [
        0.9999999403953552,
        0.9999998807907104,
        0.9999998807907104
      ],
      "translation": [
        -2.1606683731079102e-07,
        0.7912346720695496,
        -1.341104507446289e-07
      ]
    },
    {
      "name": "bip_toe_l_014",
      "rotation": [
        -0.06501594930887222,
        0.021772442385554314,
        0.1524086743593216,
        0.9859363436698914
      ],
      "scale": [
        1.0,
        1.0,
        0.9999999403953552
      ],
      "translation": [
        3.2782554626464844e-07,
        0.9246212840080261,
        -2.60770320892334e-07
      ]
    },
    {
      "children": [
        22
      ],
      "name": "bip_hip_r_015",
      "rotation": [
        -0.32210996747016907,
        0.10683540254831314,
        -0.7710549235343933,
        0.5388001799583435
      ],
      "scale": [
        0.9999998807907104,
        0.9999998211860657,
        0.9999999403953552
      ],
      "translation": [
        0.9422875642776489,
        0.2585802376270294,
        -0.9977788329124451
      ]
    },
    {
      "children": [
        23
      ],
      "name": "bip_knee_r_016",
      "rotation": [
        0.07775617390871048,
        0.03663992881774902,
        -0.12920387089252472,
        0.9878856539726257
      ],
      "scale": [
        0.9999999403953552,
        0.9999999403953552,
        1.0
      ],
      "translation": [
        -2.980232238769531e-07,
        0.7474325895309448,
        2.9802322387695313e-08
      ]
    },
    {
      "children": [
        24
      ],
      "name": "bip_foot_r_017",
      "rotation": [
        -0.04789156839251518,
        -0.021662678569555283,
        -0.057764798402786255,
        0.9969455003738403
      ],
      "scale": [
        1.0,
        0.9999999403953552,
        0.9999998807907104
      ],
      "translation": [
        -2.384185791015625e-07,
        0.7912349700927734,
        -2.2351741790771484e-07
      ]
    },
    {
      "name": "bip_toe_r_018",
      "rotation": [
        -0.06501591205596924,
        -0.021772461012005806,
        -0.1524086892604828,
        0.9859363436698914
      ],
      "translation": [
        1.0803341865539551e-07,
        0.9246214032173157,
        7.450580596923828e-08
      ]
    },
    {
      "children": [
        26
      ],
      "name": "bip_spine_0_019",
      "rotation": [
        -0.012314070016145706,
        3.8346934161381796e-05,
        3.0828223884782346e-07,
        0.9999241828918457
      ],
      "scale": [
        1.0,
        1.0000001192092896,
        1.0
      ],
      "translation": [
        1.879385536085465e-11,
        0.8682660460472107,
        2.9805754309109034e-08
      ]
    },
    {
      "children": [
        27
      ],
      "name": "bip_spine_1_020",
      "rotation": [
        -0.00024277351622004062,
        9.555622000334552e-07,
        -2.872869497849706e-09,
        1.0
      ],
      "translation": [
        -1.0693668173189508e-12,
        1.0812022686004639,
        -1.1920985798496986e-07
      ]
    },
    {
      "children": [
        28,
        29,
        59,
        60
      ],
      "name": "bip_spine_2_021",
      "rotation": [
        -0.004163706675171852,
        -1.5626078493369278e-06,
        -4.2841065805987455e-08,
        0.9999913573265076
      ],
      "scale": [
        1.0,
        1.0000001192092896,
        0.9999999403953552
      ],
      "translation": [
        -4.867217739956686e-13,
        1.0436594486236572,
        -9.685821567018138e-08
      ]
    },
    {
      "name": "def_c_chestBreath_joint_022",
      "rotation": [
        -0.7276124954223633,
        -3.259272034483729e-06,
        -3.5725759062188445e-06,
        0.6859883666038513
      ],
      "scale": [
        1.0,
        0.9999998807907104,
        0.9999998211860657
      ],
      "translation": [
        1.9095208699582145e-05,
        0.3337949812412262,
        -1.9733432531356812
      ]
    },
    {
      "children": [
        30
      ],
      "name": "bip_spine_3_023",
      "rotation": [
        -0.009783709421753883,
        -1.2142936611780897e-05,
        -6.102751193282074e-09,
        0.9999521374702454
      ],
      "scale": [
        1.0,
        0.9999999403953552,
        1.0
      ],
      "translation": [
        2.2950530365051236e-12,
        1.7221850156784058,
        3.35269803031224e-08
      ]
    },
    {
      "children": [
        31,
        49,
        54
      ],
      "name": "bip_spine_4_024",
      "rotation": [
        -0.013009676709771156,
        1.6459178368677385e-05,
        1.1857230752809755e-08,
        0.999915361404419
      ],
      "translation": [
        2.6361135496699717e-12,
        1.2656667232513428,
        1.1920926823449918e-07
      ]
    },
    {
      "children": [
        32
      ],
      "name": "bip_neck_025",
      "rotation": [
        -0.005424292292445898,
        -9.090950698009692e-06,
        3.649548219186727e-08,
        0.9999852776527405
      ],
      "scale": [
        1.0,
        0.9999999403953552,
        1.0
      ],
      "translation": [
        2.312816604899126e-12,
        1.2076488733291626,
        1.2293419615616585e-07
      ]
    },
    {
      "children": [
        33,
        48
      ],
      "name": "bip_neck_1_026",
      "rotation": [
        -0.05670942738652229,
        4.7315032134065405e-05,
        -2.793557996483287e-06,
        0.9983907341957092
      ],
      "scale": [
        1.0,
        0.9999998211860657,
        0.9999999403953552
      ],
      "translation": [
        -7.105427357601002e-14,
        0.5840134620666504,
        -5.494804611316795e-08
      ]
    },
    {
      "children": [
        34
      ],
      "name": "bip_neck_2_027",
      "rotation": [
        -0.02978423982858658,
        -4.752437234856188e-05,
        -1.3163003131921869e-06,
        0.9995563626289368
      ],
      "translation": [
        -2.788169695122633e-11,
        0.5794233679771423,
        2.0860414906564984e-07
      ]
    },
    {
      "children": [
        35,
        42,
        46,
        47
      ],
      "name": "bip_head_028",
      "rotation": [
        0.01418419647961855,
        2.8017445856676204e-06,
        -5.249878398672081e-08,
        0.9998995065689087
      ],
      "scale": [
        1.0,
        0.9999998211860657,
        0.9999999403953552
      ],
      "translation": [
        1.4210854715202004e-13,
        0.5841288566589355,
        4.973799150320701e-14
      ]
    },
    {
      "children": [
        36,
        37,
        38,
        39,
        40,
        41
      ],
      "name": "def_c_jawUpr_joint_029",
      "rotation": [
        0.015430624596774578,
        -6.5102385633508675e-06,
        -1.2888650147147018e-08,
        0.9998809695243835
      ],
      "translation": [
        -1.0476509260115563e-06,
        -0.17837920784950256,
        0.19552761316299438
      ]
    },
    {
      "name": "def_eye_joint.L_030",
      "rotation": [
        0.03957643732428551,
        -0.03464754670858383,
        0.5375266075134277,
        0.8416046500205994
      ],
      "scale": [
        1.0,
        0.9999999403953552,
        1.0
      ],
      "translation": [
        -0.6501314640045166,
        1.7118325233459473,
        0.2306380420923233
      ]
    },
    {
      "name": "def_eyelidLwr_joint.L_031",
      "rotation": [
        -0.08226887136697769,
        -0.13649572432041168,
        0.6011761426925659,
        0.7830633521080017
      ],
      "translation": [
        -0.6501314640045166,
        1.7118325233459473,
        0.2306380420923233
      ]
    },
    {
      "name": "def_eyelidUpr_joint.L_032",
      "rotation": [
        0.2950647473335266,
        0.17734386026859283,
        0.616815447807312,
        0.7078309655189514
      ],
      "translation": [
        -0.6501314640045166,
        1.7118325233459473,
        0.2306380420923233
      ]
    },
    {
      "name": "def_eye_joint.R_033",
      "rotation": [
        0.03957235440611839,
        0.034653954207897186,
        -0.5375269651412964,
        0.8416043519973755
      ],
      "translation": [
        0.6501356363296509,
        1.7118325233459473,
        0.2306281179189682
      ]
    },
    {
      "name": "def_eyelidLwr_joint.R_034",
      "rotation": [
        -0.08227343112230301,
        0.13650166988372803,
        -0.6011754870414734,
        0.7830623388290405
      ],
      "scale": [
        1.0,
        0.9999999403953552,
        0.9999999403953552
      ],
      "translation": [
        0.6501356363296509,
        1.7118325233459473,
        0.2306281179189682
      ]
    },
    {
      "name": "def_eyelidUpr_joint.R_035",
      "rotation": [
        0.2950601279735565,
        -0.17733845114707947,
        -0.6168176531791687,
        0.7078323364257813
      ],
      "scale": [
        0.9999999403953552,
        0.9999999403953552,
        0.9999999403953552
      ],
      "translation": [
        0.6501356363296509,
        1.7118325233459473,
        0.2306281179189682
      ]
    },
    {
      "children": [
        43
      ],
      "name": "bip_jaw_036",
      "rotation": [
        -0.19609671831130981,
        -2.22102153202286e-06,
        -6.140145956123888e-07,
        0.9805845618247986
      ],
      "scale": [
        1.0,
        0.9999999403953552,
        1.0
      ],
      "translation": [
        1.8171664351029904e-07,
        0.4650261104106903,
        -0.01020282506942749
      ]
    },
    {
      "children": [
        44
      ],
      "name": "bip_tongue_0_037",
      "rotation": [
        0.19393236935138702,
        -4.451957238416071e-07,
        7.266189072652196e-08,
        0.9810149073600769
      ],
      "scale": [
        1.0,
        0.9999999403953552,
        1.0
      ],
      "translation": [
        9.667873968055574e-08,
        0.47242778539657593,
        -0.11161375045776367
      ]
    },
    {
      "children": [
        45
      ],
      "name": "bip_tongue_1_038",
      "rotation": [
        -0.05098271369934082,
        5.02339332797419e-07,
        -2.508537200185401e-08,
        0.9986995458602905
      ],
      "scale": [
        1.0,
        0.9999998807907104,
        0.9999999403953552
      ],
      "translation": [
        -3.552713678800501e-15,
        0.5194376111030579,
        1.1920928955078125e-07
      ]
    },
    {
      "name": "bip_tongue_2_039",
      "rotation": [
        -0.0348234660923481,
        4.91561365834059e-07,
        -5.0696733921995474e-08,
        0.9993935823440552
      ],
      "scale": [
        1.0,
        0.9999999403953552,
        0.9999998807907104
      ],
      "translation": [
        -2.4158453015843406e-13,
        0.42184504866600037,
        1.1920920428565296e-07
      ]
    },
    {
      "name": "def_mouthMembrane_joint.L_040",
      "rotation": [
        0.0960271954536438,
        7.095405862855841e-07,
        6.109980290602834e-07,
        0.9953787326812744
      ],
      "scale": [
        1.0,
        0.9999999403953552,
        0.9999998807907104
      ],
      "translation": [
        -0.7057054042816162,
        1.3019287586212158,
        -0.2943011522293091
      ]
    },
    {
      "name": "def_mouthMembrane_joint.R_041",
      "rotation": [
        0.09602716565132141,
        -6.085223503760062e-06,
        -4.4513051022931904e-08,
        0.9953787326812744
      ],
      "scale": [
        1.0,
        0.9999999403953552,
        0.9999999403953552
      ],
      "translation": [
        0.7057090997695923,
        1.3019287586212158,
        -0.2942934036254883
      ]
    },
    {
      "name": "def_c_neckWobble_joint_042",
      "rotation": [
        -0.6095646023750305,
        -3.759890023502521e-05,
        -2.8964581360924058e-05,
        0.7927364110946655
      ],
      "translation": [
        8.261113543994725e-05,
        0.9362748265266418,
        -0.870254635810852
      ]
    },
    {
      "children": [
        50
      ],
      "name": "bip_collar_l_043",
      "rotation": [
        -0.4134288728237152,
        -0.4089989960193634,
        0.5801950097084045,
        0.5702369213104248
      ],
      "translation": [
        -0.8710435032844543,
        0.9779496192932129,
        -0.36868640780448914
      ]
    },
    {
      "children": [
        51
      ],
      "name": "bip_upperarm_l_044",
      "rotation": [
        0.36067333817481995,
        0.042006541043519974,
        -0.03531563654541969,
        0.9310762882232666
      ],
      "scale": [
        1.0,
        0.9999999403953552,
        0.9999999403953552
      ],
      "translation": [
        -2.1332246546990064e-07,
        1.2126132249832153,
        -4.470348358154297e-08
      ]
    },
    {
      "children": [
        52
      ],
      "name": "bip_lowerarm_l_045",
      "rotation": [
        -0.06642591208219528,
        -0.023168332874774933,
        0.226240873336792,
        0.971527636051178
      ],
      "scale": [
        0.9999999403953552,
        1.0,
        0.9999999403953552
      ],
      "translation": [
        -1.6839987893035868e-07,
        0.6928013563156128,
        -7.450580596923828e-08
      ]
    },
    {
      "children": [
        53
      ],
      "name": "bip_hand_l_046",
      "rotation": [
        -0.042103011161088943,
        -0.04342460632324219,
        0.06693492084741592,
        0.9959223866462708
      ],
      "scale": [
        1.0,
        0.9999998807907104,
        1.0
      ],
      "translation": [
        8.381903171539307e-09,
        0.7407698631286621,
        -7.59027898311615e-08
      ]
    },
    {
      "name": "bip_middle_0_l_047",
      "rotation": [
        -0.017150800675153732,
        -0.028124278411269188,
        0.08959940820932388,
        0.99543297290802
      ],
      "scale": [
        0.9999999403953552,
        1.0000001192092896,
        1.0
      ],
      "translation": [
        8.195638656616211e-08,
        0.9087499976158142,
        5.960464477539063e-08
      ]
    },
    {
      "children": [
        55
      ],
      "name": "bip_collar_r_048",
      "rotation": [
        -0.41341832280158997,
        0.40898850560188293,
        -0.5802025198936462,
        0.5702444911003113
      ],
      "scale": [
        0.9999997019767761,
        0.9999997615814209,
        0.9999999403953552
      ],
      "translation": [
        0.8710567355155945,
        0.9779496192932129,
        -0.3686545491218567
      ]
    },
    {
      "children": [
        56
      ],
      "name": "bip_upperarm_r_049",
      "rotation": [
        0.360673189163208,
        -0.042006440460681915,
        0.0353156141936779,
        0.9310763478279114
      ],
      "scale": [
        1.0,
        0.9999999403953552,
        0.9999998807907104
      ],
      "translation": [
        2.521070712191431e-07,
        1.2126132249832153,
        -8.009374141693115e-08
      ]
    },
    {
      "children": [
        57
      ],
      "name": "bip_lowerarm_r_050",
      "rotation": [
        -0.06642591953277588,
        0.023168332874774933,
        -0.22624093294143677,
        0.9715275764465332
      ],
      "translation": [
        -1.3390490494202822e-08,
        0.6928015947341919,
        1.4901161193847656e-07
      ]
    },
    {
      "children": [
        58
      ],
      "name": "bip_hand_r_051",
      "rotation": [
        -0.04210302233695984,
        0.043424591422080994,
        -0.06693492084741592,
        0.9959223866462708
      ],
      "scale": [
        1.0,
        0.9999999403953552,
        1.0
      ],
      "translation": [
        5.075708031654358e-08,
        0.7407700419425964,
        8.381903171539307e-09
      ]
    },
    {
      "name": "bip_middle_0_r_052",
      "rotation": [
        -0.01715075969696045,
        0.02812424674630165,
        -0.08959940820932388,
        0.99543297290802
      ],
      "scale": [
        0.9999999403953552,
        0.9999999403953552,
        0.9999999403953552
      ],
      "translation": [
        -4.172325134277344e-07,
        0.908750057220459,
        8.940696716308594e-08
      ]
    },
    {
      "name": "def_chestBreath_joint.L_053",
      "rotation": [
        -0.02081720158457756,
        0.020810414105653763,
        0.7068004608154297,
        0.7068004012107849
      ],
      "scale": [
        0.9999999403953552,
        1.0,
        0.9999999403953552
      ],
      "translation": [
        -1.485398769378662,
        0.7606226801872253,
        -0.6303773522377014
      ]
    },
    {
      "name": "def_chestBreath_joint.R_054",
      "rotation": [
        -0.02081039734184742,
        -0.020817214623093605,
        -0.7068005800247192,
        0.7068001627922058
      ],
      "scale": [
        0.9999999403953552,
        1.0,
        0.9999999403953552
      ],
      "translation": [
        1.4854111671447754,
        0.7606226801872253,
        -0.6303485631942749
      ]
    },
    {
      "matrix": [
        138.9995819392398,
        6.67143928642644e-10,
        -2.0366106804475814e-11,
        0.0,
        -2.036609844716524e-11,
        -1.761375156639809e-06,
        -138.99958259857374,
        0.0,
        -6.671440383932502e-10,
        138.9996047520323,
        -1.7613754373640443e-06,
        0.0,
        7.776324935334187e-10,
        4.8978768631968705e-06,
        3.142043192383426e-05,
        1.0
      ],
      "name": "Object_61"
    },
    {
      "mesh": 0,
      "name": "Object_62",
      "skin": 0
    }
  ],
  "samplers": [
    {
      "magFilter": 9729,
      "minFilter": 9987,
      "wrapS": 10497,
      "wrapT": 10497
    }
  ],
  "scene": 0,
  "scenes": [
    {
      "name": "Sketchfab_Scene",
      "nodes": [
        0
      ]
    }
  ],
  "skins": [
    {
      "inverseBindMatrices": 5,
      "joints": [
        5,
        6,
        7,
        8,
        9,
        10,
        11,
        12,
        13,
        14,
        15,
        16,
        17,
        18,
        19,
        20,
        21,
        22,
        23,
        24,
        25,
        26,
        27,
        28,
        29,
        30,
        31,
        32,
        33,
        34,
        35,
        36,
        37,
        38,
        39,
        40,
        41,
        42,
        43,
        44,
        45,
        46,
        47,
        48,
        49,
        50,
        51,
        52,
        53,
        54,
        55,
        56,
        57,
        58,
        59,
        60
      ],
      "skeleton": 5
    }
  ],
  "textures": [
    {
      "sampler": 0,
      "source": 0
    },
    {
      "sampler": 0,
      "source": 1
    },
    {
      "sampler": 0,
      "source": 2
    }
  ]
}
